# xmcd
#
# Track frame offsets:
# 180
# 16205
# 34317
# 47709
# 62582
# 76773
# 93309
# 109385
# 128410
# 144997
#
# Disc length: 2161 seconds
#
#
# Revision: 0
# Processed by: cddbd v1.5.1PL0 Copyright (c) Steve Scherf et al.
# Submitted via: FreeRIP 2.90 
#
DISCID=77086f0a
DTITLE=Ezra Charles - Beaumont Boy
DYEAR=1900
DGENRE=Blues
TTITLE0=Greater Texas
TTITLE1=Wear It Proud
TTITLE2=House of Blue Lights
TTITLE3=Beaumont Boys
TTITLE4=The Other Angles
TTITLE5=Talk To Me
TTITLE6=Bolivar Ferry
TTITLE7=Bad Year For The Blues
TTITLE8=Weekend in Austin
TTITLE9=You Are The Music
EXTD=
EXTT0=
EXTT1=
EXTT2=
EXTT3=
EXTT4=
EXTT5=
EXTT6=
EXTT7=
EXTT8=
EXTT9=
PLAYORDER=
